<?xml version="1.0" encoding="UTF-8" standalone="no"?>
<!-- Generator: Adobe Illustrator 16.0.0, SVG Export Plug-In . SVG Version: 6.00 Build 0)  -->

<svg
        version="1.1"
        id="Capa_1"
        x="0px"
        y="0px"
        width="512px"
        height="512px"
        viewBox="0 0 512 512"
        xml:space="preserve"
        xmlns="http://www.w3.org/2000/svg"
        xmlns:svg="http://www.w3.org/2000/svg">
	<g>
		<path
                d="M324.098,26.051l-148.948,148.95l-0.148,0.146L26.051,324.097c-34.733,34.735-34.733,91.056,0.002,125.793    c34.736,34.737,91.056,34.735,125.793,0l148.947-148.948l0.147-0.147l148.947-148.95c34.734-34.734,34.738-91.054,0-125.792    C415.152-8.685,358.83-8.683,324.098,26.051z M410.418,15.324c1.756-1.755,4.6-1.755,6.352,0c1.756,1.754,1.756,4.598,0,6.352    c-1.754,1.754-4.596,1.754-6.352,0S408.662,17.078,410.418,15.324z M336.436,141.263c1.756-1.755,4.601-1.754,6.354,0    c1.754,1.753,1.754,4.598-0.002,6.352c-1.752,1.753-4.599,1.755-6.353,0.001C334.682,145.861,334.684,143.015,336.436,141.263z     M317.32,131.144c-1.756-1.755-1.756-4.598,0-6.352c1.754-1.756,4.601-1.756,6.353-0.001c1.754,1.753,1.754,4.598,0,6.354    C321.918,132.898,319.074,132.897,317.32,131.144z M315.791,116.303c-1.754-1.754-1.752-4.6,0.002-6.354    c1.752-1.754,4.598-1.754,6.352,0.001c1.756,1.754,1.752,4.598,0,6.352C320.391,118.054,317.545,118.057,315.791,116.303z     M355.582,159.494c1.756-1.755,4.6-1.754,6.354,0c1.756,1.753,1.756,4.596,0,6.353c-1.754,1.753-4.598,1.753-6.352,0    C353.83,164.092,353.83,161.247,355.582,159.494z M334.91,132.611c-1.757-1.755-1.755-4.6,0-6.354    c1.754-1.753,4.596-1.753,6.352,0.001c1.754,1.754,1.754,4.597,0,6.351C339.51,134.363,336.662,134.365,334.91,132.611z     M356.309,127.743c1.754,1.754,1.752,4.599-0.002,6.353c-1.754,1.753-4.598,1.753-6.352,0c-1.757-1.755-1.757-4.599,0-6.353    C351.707,125.991,354.555,125.989,356.309,127.743z M329.311,102.784c-1.754-1.754-1.754-4.598,0-6.352    c1.754-1.755,4.598-1.755,6.353-0.001c1.756,1.755,1.754,4.599,0,6.354C333.908,104.538,331.064,104.538,329.311,102.784z     M337.189,117.627c-1.754,1.754-4.598,1.753-6.352,0c-1.754-1.755-1.754-4.598-0.002-6.352c1.756-1.755,4.6-1.755,6.354-0.001    C338.943,113.028,338.943,115.871,337.189,117.627z M354.025,142.729c1.756-1.755,4.601-1.755,6.354-0.002    c1.754,1.755,1.754,4.6-0.002,6.354c-1.752,1.753-4.597,1.753-6.353,0C352.271,147.325,352.271,144.482,354.025,142.729z     M369.102,145.975c1.754-1.754,4.598-1.753,6.354,0.001c1.754,1.754,1.752,4.597,0,6.351c-1.757,1.754-4.601,1.757-6.354,0.002    C367.348,150.575,367.348,147.728,369.102,145.975z M348.43,119.092c-1.756-1.754-1.756-4.599-0.004-6.353    c1.756-1.754,4.6-1.754,6.354,0c1.753,1.754,1.753,4.598-0.002,6.353C353.025,120.846,350.182,120.846,348.43,119.092z     M369.826,114.226c1.752,1.753,1.754,4.597,0,6.352c-1.755,1.753-4.601,1.754-6.354,0.001c-1.754-1.754-1.754-4.6,0-6.353    C365.227,112.471,368.07,112.472,369.826,114.226z M342.828,89.266c-1.755-1.754-1.755-4.599,0-6.353    c1.754-1.754,4.598-1.754,6.352,0c1.756,1.754,1.756,4.597,0,6.352C347.426,91.019,344.582,91.021,342.828,89.266z     M350.707,104.108c-1.752,1.754-4.599,1.753-6.353,0c-1.752-1.754-1.752-4.598,0-6.352c1.754-1.754,4.599-1.754,6.353,0    S352.461,102.354,350.707,104.108z M367.545,129.209c1.754-1.753,4.596-1.753,6.352,0.001c1.754,1.754,1.756,4.598,0,6.352    c-1.756,1.756-4.6,1.755-6.354,0.001C365.789,133.809,365.789,130.965,367.545,129.209z M382.619,132.457    c1.756-1.755,4.6-1.755,6.354,0c1.754,1.753,1.752,4.598-0.004,6.353c-1.754,1.753-4.596,1.753-6.352,0    C380.865,137.056,380.865,134.211,382.619,132.457z M361.945,105.574c-1.756-1.754-1.756-4.598,0-6.353    c1.754-1.755,4.601-1.755,6.354,0c1.752,1.754,1.752,4.597-0.002,6.353C366.543,107.328,363.699,107.328,361.945,105.574z     M383.342,100.71c1.756,1.753,1.756,4.596,0,6.35c-1.752,1.754-4.596,1.754-6.353,0.001c-1.754-1.755-1.754-4.599,0-6.353    C378.744,98.954,381.588,98.954,383.342,100.71z M356.348,75.747c-1.756-1.754-1.756-4.598-0.002-6.352s4.598-1.754,6.352,0    c1.755,1.754,1.757,4.597,0.002,6.352C360.943,77.501,358.102,77.502,356.348,75.747z M364.225,90.591    c-1.754,1.753-4.598,1.753-6.352-0.001s-1.754-4.599,0-6.352c1.756-1.755,4.6-1.755,6.354-0.001S365.98,88.834,364.225,90.591z     M381.062,115.692c1.754-1.753,4.599-1.754,6.354,0c1.752,1.754,1.752,4.599,0,6.353c-1.756,1.754-4.601,1.753-6.353-0.001    C379.309,120.289,379.309,117.446,381.062,115.692z M396.137,118.94c1.756-1.756,4.6-1.755,6.354,0    c1.757,1.754,1.757,4.597-0.002,6.354c-1.754,1.754-4.596,1.755-6.35,0C394.383,123.538,394.383,120.694,396.137,118.94z     M375.465,92.055c-1.756-1.755-1.756-4.599,0-6.353c1.752-1.754,4.596-1.754,6.352,0.001c1.752,1.754,1.752,4.598,0,6.352    C380.062,93.809,377.219,93.809,375.465,92.055z M396.863,87.19c1.752,1.753,1.752,4.597-0.002,6.354    c-1.756,1.754-4.598,1.754-6.352,0c-1.756-1.754-1.756-4.598-0.002-6.353C392.264,85.435,395.107,85.435,396.863,87.19z     M369.863,62.229c-1.754-1.754-1.754-4.598,0.002-6.353c1.755-1.754,4.599-1.754,6.353,0c1.754,1.754,1.754,4.598,0.002,6.352    C374.461,63.984,371.619,63.984,369.863,62.229z M377.744,77.071c-1.755,1.754-4.599,1.753-6.353,0    c-1.754-1.755-1.754-4.597,0-6.352c1.752-1.754,4.598-1.754,6.353,0C379.496,72.473,379.498,75.318,377.744,77.071z     M394.58,102.175c1.756-1.756,4.6-1.756,6.354-0.001s1.754,4.598-0.002,6.354c-1.754,1.754-4.596,1.753-6.352-0.001    C392.824,106.772,392.826,103.929,394.58,102.175z M409.654,105.421c1.757-1.754,4.601-1.752,6.354,0.001    c1.754,1.754,1.756,4.596,0,6.352c-1.754,1.753-4.598,1.755-6.353,0C407.902,110.019,407.902,107.174,409.654,105.421z     M388.982,78.538c-1.754-1.755-1.754-4.599-0.002-6.352c1.756-1.756,4.601-1.756,6.354-0.001c1.756,1.754,1.756,4.597,0,6.353    C393.58,80.292,390.736,80.292,388.982,78.538z M410.381,73.673c1.752,1.753,1.752,4.596-0.002,6.352    c-1.754,1.752-4.599,1.754-6.353,0c-1.756-1.754-1.754-4.6-0.002-6.353C405.781,71.918,408.625,71.918,410.381,73.673z     M383.381,48.712c-1.754-1.754-1.754-4.6,0.002-6.354c1.752-1.754,4.596-1.753,6.352,0.001c1.756,1.755,1.754,4.598,0,6.352    C387.98,50.465,385.135,50.467,383.381,48.712z M391.26,63.554c-1.752,1.753-4.596,1.753-6.35-0.001    c-1.755-1.754-1.755-4.599,0-6.352c1.754-1.755,4.598-1.755,6.354-0.001C393.018,58.954,393.016,61.799,391.26,63.554z     M408.1,88.656c1.754-1.754,4.598-1.755,6.353-0.001c1.756,1.754,1.754,4.6,0,6.353c-1.755,1.754-4.599,1.754-6.353,0    C406.344,93.253,406.346,90.409,408.1,88.656z M423.174,91.904c1.756-1.756,4.6-1.754,6.354-0.001    c1.754,1.755,1.754,4.598-0.002,6.354c-1.754,1.753-4.596,1.754-6.352,0C421.42,96.501,421.418,93.658,423.174,91.904z     M402.502,65.018c-1.756-1.754-1.756-4.599-0.002-6.353c1.754-1.753,4.598-1.753,6.352,0.001c1.754,1.754,1.754,4.598,0,6.352    S404.254,66.773,402.502,65.018z M404.781,50.034c-1.756,1.756-4.602,1.755-6.354,0.001c-1.754-1.754-1.754-4.598,0-6.354    c1.756-1.753,4.598-1.753,6.352,0.001C406.535,45.437,406.535,48.281,404.781,50.034z M423.898,60.153    c1.752,1.753,1.754,4.597-0.002,6.353c-1.752,1.754-4.598,1.753-6.35,0c-1.756-1.754-1.756-4.599-0.002-6.352    C419.299,58.398,422.145,58.399,423.898,60.153z M421.617,75.138c1.756-1.756,4.598-1.756,6.354-0.001    c1.754,1.754,1.754,4.598-0.002,6.354c-1.754,1.754-4.598,1.753-6.352-0.001S419.863,76.892,421.617,75.138z M436.691,78.385    c1.754-1.755,4.601-1.753,6.354,0c1.756,1.755,1.754,4.598,0,6.353c-1.754,1.753-4.599,1.754-6.353,0    C434.938,82.983,434.938,80.138,436.691,78.385z M416.018,51.501c-1.754-1.755-1.754-4.599,0-6.354    c1.754-1.754,4.598-1.753,6.353,0.001c1.754,1.755,1.756,4.597,0,6.353C420.615,53.255,417.773,53.255,416.018,51.501z     M435.137,61.619c1.754-1.754,4.596-1.754,6.35,0c1.757,1.754,1.757,4.598,0.002,6.352c-1.756,1.755-4.6,1.755-6.354,0.001    C433.379,66.218,433.379,63.374,435.137,61.619z M431.064,52.99c-1.756-1.755-1.756-4.6-0.004-6.353    c1.756-1.755,4.603-1.755,6.355,0c1.754,1.753,1.754,4.596-0.002,6.353C435.662,54.742,432.816,54.742,431.064,52.99z     M418.297,30.166c1.754,1.754,1.754,4.598,0.002,6.352c-1.756,1.753-4.601,1.753-6.354,0c-1.754-1.755-1.754-4.6,0-6.354    C413.699,28.411,416.543,28.411,418.297,30.166z M392.828,13.858c1.756-1.753,4.598-1.753,6.352,0.001    c1.756,1.754,1.756,4.598,0.002,6.352c-1.754,1.754-4.598,1.753-6.354-0.001C391.076,18.455,391.076,15.612,392.828,13.858z     M403.254,28.84c1.754,1.755,1.752,4.599-0.002,6.354c-1.754,1.754-4.597,1.754-6.353-0.001c-1.754-1.754-1.756-4.597-0.002-6.352    C398.654,27.086,401.498,27.086,403.254,28.84z M376.881,11.629c1.756-1.753,4.598-1.753,6.352,0.001    c1.756,1.755,1.756,4.598,0.002,6.353c-1.756,1.755-4.6,1.755-6.354,0C375.127,16.228,375.127,13.386,376.881,11.629z     M385.664,27.375c1.754,1.755,1.754,4.599,0,6.353c-1.757,1.755-4.601,1.754-6.354,0s-1.754-4.597,0.002-6.353    C381.064,25.621,383.908,25.621,385.664,27.375z M359.291,10.165c1.754-1.753,4.598-1.754,6.352,0    c1.754,1.754,1.756,4.598,0,6.352c-1.752,1.754-4.598,1.755-6.352,0C357.537,14.763,357.537,11.919,359.291,10.165z     M363.363,25.149c1.755-1.754,4.597-1.754,6.353,0c1.754,1.754,1.754,4.599,0,6.353c-1.752,1.754-4.601,1.756-6.354,0.001    C361.607,29.748,361.609,26.903,363.363,25.149z M372.145,40.892c1.756,1.754,1.756,4.599,0,6.354    c-1.754,1.753-4.598,1.753-6.352-0.001c-1.756-1.754-1.756-4.597,0-6.352S370.393,39.139,372.145,40.892z M345.773,23.684    c1.754-1.755,4.599-1.756,6.353-0.001s1.754,4.598,0,6.354c-1.754,1.754-4.599,1.753-6.353-0.001    C344.018,28.281,344.018,25.438,345.773,23.684z M349.846,38.666c1.754-1.754,4.598-1.754,6.352,0    c1.755,1.754,1.755,4.598,0,6.352c-1.754,1.756-4.598,1.756-6.354,0.001C348.088,43.265,348.09,40.422,349.846,38.666z     M358.625,54.412c1.756,1.754,1.756,4.599,0.002,6.352c-1.754,1.754-4.599,1.753-6.353-0.001s-1.754-4.598-0.002-6.352    C354.029,52.658,356.871,52.658,358.625,54.412z M332.256,37.201c1.752-1.754,4.596-1.754,6.352,0.001    c1.752,1.754,1.752,4.598,0,6.352c-1.754,1.754-4.6,1.753-6.352-0.001C330.502,41.798,330.502,38.955,332.256,37.201z     M336.326,52.185c1.756-1.754,4.6-1.756,6.354-0.001c1.754,1.754,1.754,4.599,0,6.354c-1.754,1.753-4.598,1.753-6.352-0.001    C334.572,56.783,334.572,53.939,336.326,52.185z M345.109,67.929c1.754,1.754,1.756,4.599,0,6.353c-1.756,1.756-4.6,1.755-6.354,0    c-1.754-1.753-1.754-4.598,0.002-6.353C340.512,66.175,343.354,66.175,345.109,67.929z M318.738,50.719    c1.752-1.754,4.597-1.754,6.353,0c1.754,1.755,1.754,4.598,0,6.352c-1.754,1.755-4.601,1.756-6.354,0.001    C316.98,55.318,316.982,52.474,318.738,50.719z M322.809,65.703c1.756-1.754,4.596-1.754,6.353,0    c1.756,1.754,1.756,4.598,0.002,6.352s-4.603,1.756-6.355,0.001S321.057,67.456,322.809,65.703z M331.59,81.448    c1.754,1.754,1.756,4.599,0,6.353c-1.752,1.753-4.596,1.753-6.353-0.001c-1.754-1.754-1.754-4.598,0-6.352    C326.992,79.695,329.836,79.695,331.59,81.448z M305.219,64.238c1.754-1.756,4.6-1.756,6.354-0.001    c1.752,1.754,1.755,4.598-0.002,6.354c-1.752,1.753-4.598,1.753-6.352-0.001C303.463,68.834,303.465,65.992,305.219,64.238z     M309.293,79.221c1.752-1.754,4.596-1.754,6.352,0c1.754,1.754,1.754,4.598,0,6.352c-1.756,1.756-4.6,1.755-6.354,0.001    C307.535,83.819,307.535,80.976,309.293,79.221z M318.07,94.966c1.757,1.754,1.757,4.598,0.004,6.352    c-1.756,1.755-4.598,1.754-6.352,0c-1.756-1.755-1.756-4.597-0.002-6.351C313.475,93.212,316.318,93.212,318.07,94.966z     M291.701,77.756c1.754-1.753,4.596-1.754,6.352,0c1.754,1.754,1.754,4.598,0.002,6.352c-1.756,1.754-4.6,1.754-6.352,0    C289.947,82.352,289.947,79.51,291.701,77.756z M295.773,92.74c1.752-1.754,4.597-1.755,6.353-0.001    c1.756,1.755,1.754,4.6,0,6.353c-1.754,1.754-4.601,1.756-6.355,0.001C294.016,97.339,294.018,94.493,295.773,92.74z     M304.555,108.483c1.754,1.754,1.756,4.598,0,6.354c-1.754,1.753-4.6,1.753-6.354-0.001c-1.753-1.754-1.753-4.598,0-6.352    C299.957,106.73,302.801,106.73,304.555,108.483z M278.182,91.275c1.756-1.756,4.599-1.757,6.354-0.001    c1.754,1.754,1.754,4.598,0,6.354c-1.756,1.753-4.601,1.753-6.354-0.001C276.428,95.871,276.428,93.029,278.182,91.275z     M91.274,278.182c1.756-1.754,4.596-1.754,6.352,0s1.756,4.598,0.002,6.353c-1.756,1.755-4.598,1.755-6.354,0    C89.518,282.781,89.518,279.937,91.274,278.182z M108.485,298.202c1.754-1.754,4.598-1.754,6.352,0s1.756,4.598,0,6.353    c-1.754,1.755-4.6,1.754-6.354,0C106.73,302.801,106.73,299.957,108.485,298.202z M61.621,435.136    c1.752-1.755,4.596-1.755,6.352-0.001c1.754,1.755,1.754,4.599,0,6.353c-1.756,1.756-4.6,1.755-6.352-0.001    C59.866,439.731,59.866,436.89,61.621,435.136z M52.989,437.415c-1.756,1.754-4.601,1.753-6.353,0c-1.756-1.754-1.756-4.6,0-6.354    c1.752-1.752,4.597-1.752,6.353,0.002C54.741,432.816,54.741,435.662,52.989,437.415z M51.5,422.37    c-1.756,1.754-4.596,1.754-6.353,0c-1.754-1.755-1.756-4.598,0-6.353c1.757-1.754,4.599-1.754,6.353,0    C53.256,417.772,53.256,420.615,51.5,422.37z M78.385,436.691c1.752-1.754,4.599-1.752,6.353,0.002    c1.756,1.754,1.754,4.598,0,6.352c-1.754,1.753-4.599,1.755-6.353,0S76.631,438.445,78.385,436.691z M60.153,417.545    c1.756-1.754,4.6-1.754,6.354,0.001c1.752,1.753,1.752,4.597-0.002,6.352c-1.756,1.755-4.598,1.754-6.354,0.001    C58.399,422.144,58.396,419.3,60.153,417.545z M43.682,404.78c-1.754-1.754-1.754-4.599,0-6.353s4.599-1.754,6.354,0    c1.754,1.754,1.754,4.598,0,6.353C48.28,406.535,45.436,406.535,43.682,404.78z M75.137,427.97    c-1.754-1.754-1.754-4.598,0.002-6.353c1.752-1.755,4.599-1.755,6.353,0c1.754,1.753,1.752,4.599,0,6.353    C79.737,429.724,76.891,429.724,75.137,427.97z M65.02,408.852c-1.754,1.753-4.6,1.755-6.352,0    c-1.756-1.754-1.756-4.599-0.002-6.353c1.754-1.753,4.598-1.753,6.354,0.001C66.774,404.256,66.774,407.098,65.02,408.852z     M73.672,404.026c1.754-1.753,4.598-1.753,6.354,0.001c1.754,1.753,1.754,4.599-0.002,6.353c-1.755,1.754-4.597,1.753-6.351,0    C71.918,408.625,71.916,405.78,73.672,404.026z M57.2,391.263c-1.754-1.754-1.754-4.598,0-6.353c1.756-1.756,4.6-1.756,6.354,0    c1.752,1.753,1.754,4.598-0.002,6.352C61.799,393.017,58.955,393.017,57.2,391.263z M48.711,389.734    c-1.754,1.753-4.598,1.755-6.352,0c-1.755-1.755-1.755-4.599,0-6.353c1.752-1.754,4.598-1.754,6.352,0    C50.467,385.137,50.463,387.98,48.711,389.734z M91.903,423.174c1.754-1.754,4.598-1.753,6.354,0.001    c1.754,1.754,1.752,4.597,0,6.351c-1.756,1.754-4.6,1.755-6.354,0.001S90.149,424.929,91.903,423.174z M88.657,414.452    c-1.756-1.755-1.754-4.6,0-6.354c1.752-1.754,4.596-1.754,6.352,0c1.754,1.754,1.754,4.599,0,6.353    C93.254,416.206,90.409,416.206,88.657,414.452z M78.537,395.334c-1.754,1.754-4.599,1.754-6.353,0.001    c-1.756-1.755-1.756-4.599,0-6.354c1.754-1.755,4.599-1.755,6.353,0C80.291,390.735,80.291,393.579,78.537,395.334z     M87.19,390.509c1.754-1.753,4.598-1.753,6.354,0.002c1.752,1.753,1.752,4.596,0,6.35c-1.756,1.755-4.6,1.755-6.352,0.002    C85.436,395.106,85.436,392.263,87.19,390.509z M70.719,377.744c-1.756-1.754-1.756-4.599,0-6.354    c1.754-1.753,4.597-1.753,6.353,0.001c1.754,1.754,1.756,4.599,0,6.353C75.317,379.499,72.473,379.498,70.719,377.744z     M62.229,376.217c-1.754,1.754-4.598,1.754-6.352,0c-1.754-1.755-1.754-4.598,0-6.353s4.598-1.754,6.352,0.001    C63.983,371.62,63.983,374.463,62.229,376.217z M105.42,409.655c1.756-1.754,4.6-1.753,6.354,0.001    c1.754,1.755,1.754,4.598,0,6.352c-1.757,1.756-4.599,1.755-6.354,0.001C103.666,414.255,103.666,411.411,105.42,409.655z     M102.174,400.933c-1.754-1.755-1.754-4.598,0-6.353c1.754-1.753,4.598-1.754,6.353,0.001c1.754,1.753,1.754,4.598,0,6.352    C106.771,402.688,103.928,402.687,102.174,400.933z M92.055,381.815c-1.752,1.753-4.598,1.755-6.352,0    c-1.756-1.754-1.752-4.599,0-6.353c1.754-1.754,4.598-1.754,6.352,0.001S93.809,380.062,92.055,381.815z M100.707,376.991    c1.756-1.754,4.6-1.753,6.354,0.001s1.754,4.598,0,6.352s-4.598,1.754-6.352,0C98.955,381.589,98.953,378.745,100.707,376.991z     M84.239,364.226c-1.756-1.754-1.756-4.598,0-6.353c1.754-1.755,4.596-1.753,6.352,0.001c1.754,1.753,1.754,4.597,0,6.351    C88.834,365.98,85.991,365.979,84.239,364.226z M75.746,362.7c-1.754,1.754-4.596,1.753-6.353-0.001    c-1.754-1.754-1.754-4.598,0-6.353s4.599-1.754,6.353-0.001C77.502,358.101,77.502,360.944,75.746,362.7z M118.939,396.138    c1.755-1.754,4.599-1.753,6.353,0.001c1.756,1.754,1.756,4.597,0,6.351c-1.756,1.755-4.596,1.756-6.353,0.001    C117.186,400.736,117.184,397.892,118.939,396.138z M115.692,387.416c-1.755-1.754-1.755-4.6,0-6.354    c1.754-1.754,4.598-1.754,6.352,0s1.756,4.6,0.002,6.353C120.289,389.169,117.446,389.169,115.692,387.416z M105.573,368.298    c-1.754,1.753-4.599,1.755-6.353,0.001c-1.754-1.755-1.754-4.6,0-6.354s4.599-1.754,6.353,0.001    C107.326,363.7,107.328,366.543,105.573,368.298z M114.227,363.473c1.752-1.754,4.599-1.754,6.353,0    c1.754,1.753,1.754,4.599,0,6.353s-4.599,1.754-6.353,0C112.471,368.071,112.471,365.227,114.227,363.473z M97.756,350.708    c-1.754-1.754-1.754-4.598,0-6.354c1.754-1.753,4.598-1.753,6.353,0.001c1.754,1.755,1.754,4.599,0.002,6.353    C102.354,352.462,99.51,352.462,97.756,350.708z M89.266,349.181c-1.756,1.754-4.598,1.754-6.352-0.001    c-1.756-1.753-1.756-4.598-0.002-6.352c1.754-1.753,4.598-1.754,6.354,0C91.021,344.583,91.018,347.427,89.266,349.181z     M132.455,382.62c1.756-1.755,4.6-1.755,6.354,0c1.754,1.754,1.754,4.597-0.002,6.353c-1.754,1.754-4.598,1.755-6.352,0    S130.701,384.375,132.455,382.62z M129.209,373.896c-1.754-1.754-1.754-4.597,0-6.352c1.756-1.754,4.598-1.755,6.352,0    c1.757,1.754,1.757,4.598,0,6.352C133.807,375.653,130.965,375.651,129.209,373.896z M119.09,354.781    c-1.752,1.754-4.598,1.754-6.352,0c-1.754-1.755-1.754-4.599,0-6.354c1.754-1.754,4.6-1.754,6.354,0    C120.844,350.182,120.844,353.025,119.09,354.781z M127.744,349.953c1.754-1.753,4.598-1.753,6.352,0.002    c1.754,1.753,1.754,4.598,0,6.352s-4.598,1.755-6.352,0.001C125.991,354.553,125.991,351.709,127.744,349.953z M111.274,337.191    c-1.757-1.755-1.755-4.6,0-6.354c1.756-1.753,4.598-1.753,6.352,0.001c1.756,1.754,1.756,4.598,0.002,6.352    C115.873,338.944,113.028,338.945,111.274,337.191z M102.784,335.662c-1.756,1.755-4.599,1.755-6.354,0    c-1.754-1.753-1.754-4.599,0-6.353c1.756-1.755,4.601-1.754,6.354,0C104.539,331.064,104.537,333.908,102.784,335.662z     M145.975,369.102c1.754-1.754,4.601-1.754,6.355,0c1.752,1.754,1.752,4.599-0.004,6.353c-1.752,1.753-4.597,1.756-6.353,0.001    C144.221,373.7,144.221,370.855,145.975,369.102z M142.727,360.379c-1.754-1.754-1.754-4.597,0.002-6.353    c1.752-1.754,4.597-1.755,6.353,0c1.756,1.754,1.754,4.599,0.002,6.352C147.325,362.134,144.48,362.134,142.727,360.379z     M132.608,341.262c-1.753,1.754-4.597,1.754-6.353,0.001c-1.754-1.755-1.754-4.599,0-6.353s4.6-1.755,6.354,0    C134.364,336.663,134.364,339.508,132.608,341.262z M109.948,322.145c-1.754-1.753-1.754-4.599,0.002-6.353    c1.754-1.754,4.6-1.755,6.352,0c1.756,1.754,1.756,4.598,0,6.352C114.545,323.899,111.703,323.9,109.948,322.145z     M159.494,355.583c1.752-1.754,4.598-1.752,6.352,0.001c1.754,1.754,1.754,4.598,0,6.352c-1.756,1.754-4.598,1.756-6.352,0    C157.739,360.182,157.739,357.338,159.494,355.583z M147.614,342.789c-1.754,1.754-4.599,1.754-6.353,0.001    c-1.754-1.755-1.754-4.601,0-6.354s4.599-1.754,6.354,0.001C149.367,338.191,149.367,341.035,147.614,342.789z M131.145,323.672    c-1.756,1.754-4.6,1.754-6.354,0c-1.754-1.755-1.754-4.598,0.002-6.353c1.754-1.755,4.596-1.755,6.352,0    C132.899,319.074,132.899,321.917,131.145,323.672z M92.739,295.772c1.756-1.755,4.6-1.757,6.354-0.001    c1.754,1.755,1.754,4.6,0,6.354c-1.754,1.754-4.598,1.755-6.354,0S90.987,297.527,92.739,295.772z M77.754,291.702    c1.756-1.755,4.598-1.756,6.354-0.001c1.754,1.754,1.754,4.598-0.003,6.353c-1.752,1.753-4.596,1.753-6.352-0.001    C76,296.299,76.002,293.454,77.754,291.702z M94.965,311.721c1.754-1.754,4.598-1.754,6.353,0c1.754,1.754,1.756,4.6,0,6.354    c-1.752,1.753-4.599,1.753-6.353-0.001S93.213,313.475,94.965,311.721z M79.221,309.291c1.754-1.754,4.599-1.755,6.354,0    c1.754,1.754,1.754,4.599,0,6.353c-1.756,1.754-4.601,1.754-6.354-0.001S77.467,311.045,79.221,309.291z M64.239,305.219    c1.754-1.754,4.596-1.755,6.352-0.001c1.756,1.755,1.756,4.598,0,6.354c-1.756,1.755-4.6,1.754-6.354,0    C62.483,309.817,62.483,306.973,64.239,305.219z M81.448,325.239c1.754-1.754,4.6-1.754,6.352,0    c1.754,1.754,1.754,4.598,0.002,6.352c-1.754,1.755-4.6,1.754-6.354,0C79.696,329.836,79.696,326.993,81.448,325.239z     M65.703,322.81c1.754-1.755,4.598-1.757,6.354-0.001c1.754,1.753,1.754,4.6-0.002,6.354c-1.752,1.753-4.598,1.753-6.352-0.001    C63.948,327.406,63.95,324.562,65.703,322.81z M50.719,318.738c1.754-1.754,4.599-1.755,6.353-0.001    c1.756,1.754,1.756,4.6,0,6.353c-1.752,1.754-4.599,1.754-6.353,0S48.965,320.491,50.719,318.738z M67.93,338.758    c1.754-1.755,4.599-1.755,6.353,0c1.754,1.754,1.754,4.599,0,6.354c-1.754,1.753-4.599,1.753-6.354-0.001    C66.176,343.355,66.176,340.512,67.93,338.758z M52.184,336.327c1.756-1.755,4.601-1.755,6.354-0.001    c1.754,1.755,1.756,4.598,0,6.354c-1.754,1.754-4.598,1.754-6.354,0C50.428,340.925,50.43,338.082,52.184,336.327z M37.2,332.256    c1.756-1.754,4.6-1.755,6.354,0c1.754,1.754,1.754,4.598,0,6.354c-1.754,1.754-4.598,1.754-6.352,0    C35.448,336.852,35.448,334.01,37.2,332.256z M54.412,352.275c1.754-1.754,4.596-1.754,6.352,0c1.754,1.754,1.754,4.598,0,6.352    c-1.754,1.755-4.598,1.754-6.352,0C52.657,356.873,52.657,354.029,54.412,352.275z M38.666,349.845    c1.756-1.754,4.598-1.755,6.354,0c1.755,1.754,1.757,4.599,0,6.354c-1.754,1.753-4.6,1.753-6.354,0    C36.91,354.443,36.912,351.599,38.666,349.845z M23.684,345.772c1.757-1.755,4.599-1.754,6.353,0c1.754,1.755,1.756,4.598,0,6.353    c-1.754,1.755-4.601,1.754-6.354,0C21.93,350.37,21.93,347.528,23.684,345.772z M40.893,365.793c1.757-1.754,4.601-1.754,6.354,0    s1.754,4.598,0,6.353s-4.598,1.755-6.354,0C39.139,370.391,39.139,367.548,40.893,365.793z M25.149,363.364    c1.756-1.755,4.6-1.756,6.354-0.002c1.754,1.755,1.754,4.6-0.002,6.354c-1.754,1.754-4.596,1.753-6.352,0    C23.393,367.96,23.393,365.118,25.149,363.364z M10.164,359.292c1.754-1.755,4.598-1.755,6.352,0c1.756,1.754,1.756,4.598,0,6.353    c-1.752,1.752-4.598,1.753-6.352-0.002C8.41,363.889,8.412,361.045,10.164,359.292z M27.375,379.311    c1.756-1.754,4.598-1.754,6.352,0s1.757,4.598,0.002,6.353c-1.754,1.754-4.6,1.754-6.354,0    C25.621,383.908,25.621,381.064,27.375,379.311z M11.629,376.882c1.756-1.754,4.6-1.756,6.355-0.001    c1.754,1.754,1.752,4.6-0.002,6.354c-1.755,1.754-4.599,1.753-6.354-0.001C9.875,381.478,9.877,378.636,11.629,376.882z     M28.842,396.9c1.754-1.755,4.599-1.755,6.353,0s1.754,4.599,0,6.353c-1.757,1.754-4.599,1.756-6.353,0    C27.086,401.499,27.086,398.655,28.842,396.9z M13.858,392.828c1.756-1.754,4.598-1.754,6.352,0.001    c1.756,1.754,1.756,4.598,0.002,6.352c-1.756,1.754-4.598,1.754-6.354,0C12.102,397.427,12.102,394.583,13.858,392.828z     M30.164,411.945c1.756-1.753,4.598-1.753,6.352,0.001c1.756,1.755,1.756,4.599,0.002,6.353c-1.756,1.754-4.6,1.754-6.354,0    C28.41,416.544,28.41,413.701,30.164,411.945z M15.323,410.419c1.754-1.754,4.6-1.754,6.354,0s1.752,4.597-0.002,6.352    c-1.752,1.754-4.598,1.755-6.352,0C13.569,415.017,13.569,412.173,15.323,410.419z M54.455,455.005    c-1.754,1.755-4.601,1.755-6.354,0.001c-1.756-1.755-1.754-4.6,0-6.354c1.754-1.753,4.599-1.753,6.353,0.001    C56.207,450.408,56.207,453.251,54.455,455.005z M37.983,435.889c-1.755,1.753-4.599,1.755-6.354,0    c-1.754-1.754-1.752-4.599,0-6.353c1.756-1.755,4.6-1.755,6.354,0C39.737,431.29,39.737,434.134,37.983,435.889z M71.219,456.562    c-1.754,1.754-4.598,1.755-6.352,0.001s-1.754-4.6,0-6.353c1.754-1.755,4.598-1.754,6.352,0S72.973,454.808,71.219,456.562z     M86.203,460.635c-1.754,1.755-4.599,1.755-6.354,0c-1.754-1.754-1.754-4.598,0-6.354c1.756-1.754,4.601-1.755,6.355,0    C87.959,456.037,87.957,458.881,86.203,460.635z M101.209,462.161c-1.756,1.755-4.6,1.755-6.354,0.001    c-1.754-1.754-1.756-4.599,0-6.354c1.755-1.754,4.599-1.754,6.354,0C102.963,457.563,102.961,460.408,101.209,462.161z     M116.192,466.232c-1.755,1.755-4.599,1.755-6.351,0.001c-1.756-1.755-1.756-4.599-0.002-6.354    c1.754-1.753,4.598-1.753,6.353,0.002C117.946,461.636,117.946,464.48,116.192,466.232z M99.721,447.117    c-1.754,1.754-4.596,1.754-6.352,0c-1.756-1.755-1.756-4.599,0-6.354c1.754-1.754,4.598-1.753,6.352,0.001    C101.477,442.519,101.477,445.362,99.721,447.117z M114.727,448.643c-1.754,1.753-4.598,1.755-6.354,0    c-1.754-1.754-1.752-4.599,0-6.353c1.756-1.753,4.598-1.753,6.352,0.001C116.48,444.046,116.48,446.889,114.727,448.643z     M129.711,452.716c-1.754,1.754-4.6,1.755-6.354,0.001c-1.755-1.754-1.755-4.6,0.002-6.354c1.752-1.754,4.598-1.753,6.352,0.001    C131.463,448.118,131.463,450.962,129.711,452.716z M113.241,433.598c-1.756,1.755-4.601,1.757-6.355,0.001    c-1.752-1.753-1.752-4.599,0.004-6.354c1.752-1.753,4.599-1.755,6.353,0C114.994,429,114.994,431.844,113.241,433.598z     M128.244,435.126c-1.754,1.754-4.599,1.754-6.353,0c-1.756-1.754-1.756-4.599-0.002-6.353c1.756-1.755,4.603-1.756,6.355-0.001    S130,433.371,128.244,435.126z M143.229,439.197c-1.756,1.756-4.6,1.755-6.352,0.001c-1.756-1.755-1.756-4.599,0-6.354    c1.752-1.754,4.598-1.754,6.352,0.001C144.983,434.599,144.983,437.444,143.229,439.197z M126.758,420.081    c-1.756,1.754-4.598,1.754-6.354,0c-1.754-1.754-1.757-4.6,0-6.354c1.756-1.755,4.6-1.754,6.354,0    C128.512,415.482,128.512,418.326,126.758,420.081z M141.764,421.606c-1.756,1.755-4.6,1.756-6.354,0.001    c-1.754-1.754-1.752-4.599,0.004-6.354c1.752-1.753,4.596-1.753,6.352,0.001C143.518,417.01,143.518,419.853,141.764,421.606z     M156.746,425.68c-1.754,1.754-4.601,1.754-6.353,0c-1.754-1.754-1.756-4.599,0-6.354c1.752-1.755,4.599-1.755,6.353,0    C158.502,421.081,158.5,423.926,156.746,425.68z M140.276,406.562c-1.757,1.754-4.599,1.755-6.353,0    c-1.756-1.754-1.756-4.598,0-6.353c1.752-1.753,4.601-1.753,6.353,0C142.03,401.965,142.03,404.809,140.276,406.562z     M155.282,408.09c-1.756,1.754-4.599,1.754-6.354,0.001c-1.754-1.754-1.756-4.599,0-6.354s4.601-1.754,6.354,0    C157.035,403.492,157.035,406.335,155.282,408.09z M170.266,412.161c-1.756,1.755-4.602,1.755-6.354,0.002    c-1.756-1.754-1.754-4.601,0-6.355c1.754-1.753,4.598-1.752,6.354,0.002C172.018,407.563,172.018,410.408,170.266,412.161z     M153.793,393.044c-1.754,1.755-4.598,1.756-6.354,0.002c-1.754-1.755-1.752-4.601,0.003-6.354c1.754-1.753,4.598-1.753,6.352,0    C155.547,388.447,155.547,391.291,153.793,393.044z M168.799,394.571c-1.756,1.755-4.598,1.755-6.352,0    c-1.756-1.754-1.756-4.598,0-6.353c1.752-1.754,4.598-1.754,6.352,0S170.553,392.817,168.799,394.571z M183.782,398.644    c-1.754,1.754-4.597,1.754-6.353,0c-1.754-1.754-1.754-4.599,0-6.352c1.754-1.755,4.599-1.754,6.354,0    C185.537,394.046,185.537,396.889,183.782,398.644z M167.311,379.525c-1.752,1.754-4.598,1.755-6.352,0    c-1.752-1.753-1.754-4.598,0-6.353c1.754-1.754,4.6-1.752,6.352,0.001C169.064,374.929,169.064,377.772,167.311,379.525z     M182.317,381.053c-1.755,1.755-4.599,1.756-6.354,0.001c-1.754-1.754-1.752-4.599,0.002-6.354c1.754-1.754,4.598-1.754,6.353,0    C184.071,376.456,184.071,379.3,182.317,381.053z M197.301,385.125c-1.756,1.755-4.6,1.755-6.352,0.002    c-1.756-1.755-1.756-4.601,0-6.355c1.752-1.752,4.596-1.752,6.352,0.003C199.055,380.526,199.053,383.372,197.301,385.125z     M180.83,366.008c-1.754,1.754-4.601,1.756-6.354,0.001c-1.754-1.754-1.754-4.599,0-6.354c1.754-1.753,4.601-1.754,6.353,0.001    C182.584,361.411,182.582,364.255,180.83,366.008z M162.598,346.862c-1.754,1.754-4.598,1.754-6.354,0    c-1.754-1.754-1.754-4.599,0-6.353c1.756-1.755,4.6-1.755,6.354-0.001C164.352,342.264,164.352,345.106,162.598,346.862z     M146.127,327.744c-1.754,1.754-4.598,1.754-6.352-0.001c-1.755-1.754-1.755-4.599-0.003-6.352    c1.755-1.754,4.601-1.755,6.354-0.001C147.883,323.146,147.881,325.99,146.127,327.744z M129.819,308.627    c-1.754,1.754-4.597,1.754-6.353-0.001c-1.754-1.754-1.754-4.598-0.002-6.352c1.756-1.756,4.601-1.754,6.353,0.001    C131.573,304.031,131.575,306.872,129.819,308.627z M112.61,288.606c-1.755,1.756-4.599,1.754-6.353,0    c-1.756-1.755-1.756-4.598,0-6.352c1.754-1.755,4.596-1.755,6.353,0C114.364,284.009,114.364,286.853,112.61,288.606z     M363.445,206.276l-78.512,78.511l-0.146,0.146l-78.512,78.513l-93.779-93.781l78.512-78.511l0.146-0.148l78.512-78.511    L363.445,206.276z M282.254,112.609c-1.754-1.754-1.754-4.597,0-6.352c1.756-1.754,4.598-1.754,6.352,0    c1.756,1.754,1.756,4.599,0.003,6.352C286.852,114.366,284.01,114.364,282.254,112.609z M302.275,129.819    c-1.754-1.754-1.756-4.597,0-6.352c1.752-1.755,4.599-1.754,6.353,0c1.754,1.755,1.754,4.598,0,6.353    C306.871,131.575,304.029,131.574,302.275,129.819z M321.391,146.127c-1.754-1.754-1.754-4.598,0-6.352    c1.756-1.754,4.6-1.754,6.355,0c1.752,1.754,1.752,4.597-0.002,6.352C325.99,147.882,323.146,147.882,321.391,146.127z     M340.508,156.246c1.754-1.754,4.6-1.756,6.354-0.002c1.757,1.754,1.754,4.6,0,6.354c-1.754,1.753-4.6,1.754-6.354,0    S338.754,158,340.508,156.246z M359.656,180.83c-1.756-1.754-1.754-4.599-0.002-6.352c1.757-1.757,4.603-1.755,6.354-0.001    c1.754,1.754,1.754,4.598,0,6.354C364.256,182.583,361.41,182.585,359.656,180.83z M385.125,197.301    c-1.754,1.754-4.599,1.754-6.351,0c-1.756-1.754-1.758-4.598-0.004-6.352s4.603-1.755,6.355-0.001    C386.881,192.701,386.879,195.547,385.125,197.301z M381.053,182.316c-1.752,1.754-4.596,1.754-6.352,0    c-1.755-1.754-1.755-4.598,0-6.352c1.754-1.754,4.6-1.754,6.354,0S382.809,180.563,381.053,182.316z M373.174,167.311    c-1.752-1.754-1.754-4.598,0-6.352c1.754-1.754,4.598-1.753,6.352,0c1.754,1.755,1.754,4.598,0,6.352    C377.771,169.067,374.93,169.065,373.174,167.311z M398.643,183.783c-1.754,1.754-4.598,1.754-6.352,0.001    c-1.756-1.754-1.756-4.599,0-6.354s4.6-1.753,6.354,0.001C400.398,179.184,400.398,182.028,398.643,183.783z M394.57,168.8    c-1.754,1.753-4.596,1.753-6.35-0.001c-1.756-1.754-1.756-4.598-0.004-6.352c1.758-1.755,4.6-1.754,6.354,0    S396.326,167.044,394.57,168.8z M386.691,153.794c-1.752-1.753-1.754-4.598,0-6.352c1.754-1.756,4.601-1.755,6.354-0.001    c1.756,1.754,1.754,4.598-0.002,6.354C391.291,155.548,388.445,155.548,386.691,153.794z M412.162,170.264    c-1.754,1.754-4.599,1.754-6.353,0s-1.756-4.599-0.002-6.352c1.754-1.754,4.603-1.755,6.355-0.001    S413.916,168.511,412.162,170.264z M408.09,155.28c-1.756,1.756-4.598,1.756-6.354,0.002c-1.754-1.754-1.756-4.599,0.002-6.354    c1.755-1.754,4.599-1.753,6.353,0.001S409.844,153.526,408.09,155.28z M400.209,140.276c-1.754-1.753-1.754-4.599,0-6.354    c1.756-1.754,4.6-1.753,6.352,0c1.756,1.755,1.756,4.598,0.002,6.352C404.809,142.03,401.963,142.032,400.209,140.276z     M425.68,156.747c-1.754,1.754-4.598,1.753-6.352,0c-1.754-1.754-1.757-4.6-0.002-6.353c1.756-1.756,4.6-1.754,6.354,0    C427.434,152.147,427.436,154.992,425.68,156.747z M421.607,141.763c-1.754,1.754-4.598,1.754-6.352-0.001    c-1.754-1.754-1.756-4.599,0-6.352c1.752-1.754,4.598-1.754,6.352,0S423.361,140.009,421.607,141.763z M413.729,126.757    c-1.754-1.754-1.754-4.598-0.002-6.352c1.758-1.757,4.603-1.755,6.354-0.001c1.756,1.755,1.756,4.598,0,6.354    C418.326,128.512,415.484,128.512,413.729,126.757z M439.197,143.227c-1.752,1.755-4.598,1.756-6.352,0.003    c-1.756-1.755-1.756-4.601,0-6.355c1.754-1.754,4.6-1.753,6.352,0.002C440.951,138.63,440.951,141.474,439.197,143.227z     M435.125,128.243c-1.754,1.756-4.599,1.756-6.353,0.002s-1.754-4.599,0-6.354c1.754-1.754,4.599-1.753,6.353,0.001    C436.881,123.646,436.881,126.49,435.125,128.243z M427.244,113.24c-1.752-1.754-1.752-4.598,0-6.352    c1.756-1.756,4.6-1.755,6.354-0.001c1.754,1.755,1.754,4.598-0.004,6.354C431.844,114.994,429,114.995,427.244,113.24z     M452.715,129.711c-1.752,1.753-4.598,1.753-6.353,0c-1.754-1.754-1.754-4.599,0-6.353c1.755-1.754,4.601-1.754,6.355,0    C454.471,125.111,454.469,127.957,452.715,129.711z M448.643,114.726c-1.754,1.753-4.596,1.753-6.35-0.001    c-1.756-1.754-1.756-4.598-0.002-6.352c1.754-1.754,4.598-1.753,6.352,0.001C450.396,110.128,450.396,112.972,448.643,114.726z     M440.764,99.722c-1.754-1.754-1.754-4.599,0-6.353c1.754-1.753,4.598-1.753,6.352,0.001c1.757,1.754,1.757,4.598,0.003,6.351    C445.363,101.475,442.52,101.476,440.764,99.722z M466.232,116.194c-1.752,1.752-4.598,1.753-6.352,0    c-1.752-1.755-1.752-4.601,0-6.353c1.754-1.756,4.6-1.755,6.354,0C467.988,111.594,467.988,114.437,466.232,116.194z     M462.16,101.209c-1.755,1.753-4.597,1.753-6.353,0c-1.754-1.754-1.754-4.599,0-6.353c1.754-1.754,4.601-1.755,6.354,0    C463.916,96.61,463.916,99.454,462.16,101.209z M460.635,86.203c-1.756,1.754-4.598,1.755-6.352,0    c-1.757-1.753-1.757-4.598-0.003-6.352c1.757-1.755,4.601-1.755,6.354,0C462.391,81.605,462.391,84.449,460.635,86.203z     M456.562,71.219c-1.754,1.754-4.596,1.755-6.35,0c-1.756-1.754-1.756-4.598-0.004-6.352c1.756-1.753,4.602-1.754,6.354,0    C458.318,66.621,458.316,69.466,456.562,71.219z M429.535,37.984c-1.755-1.755-1.755-4.598,0-6.353    c1.754-1.755,4.598-1.755,6.354,0c1.754,1.754,1.754,4.598,0,6.352C434.133,39.738,431.289,39.738,429.535,37.984z     M455.006,54.454c-1.754,1.754-4.598,1.754-6.353,0c-1.756-1.754-1.756-4.598,0-6.352c1.752-1.754,4.597-1.755,6.353-0.001    C456.76,49.856,456.76,52.7,455.006,54.454z"
                id="path2"
                fill="#fff"
                fill-opacity="1"
        />
	</g>
</svg>
