<?xml version="1.0" encoding="UTF-8" standalone="no"?>
<!-- Generator: Adobe Illustrator 17.1.0, SVG Export Plug-In . SVG Version: 6.00 Build 0)  -->

<svg
   version="1.1"
   id="Capa_1"
   x="0px"
   y="0px"
   viewBox="0 0 189.528 189.528"
   xml:space="preserve"
   xmlns="http://www.w3.org/2000/svg"
   xmlns:svg="http://www.w3.org/2000/svg"><defs
   id="defs37"><filter
     style="color-interpolation-filters:sRGB;"
     id="filter41"
     x="0"
     y="0"
     width="1"
     height="1"><feColorMatrix
       values="-1 0 0 0 1 0 -1 0 0 1 0 0 -1 0 1 -0.21 -0.72 -0.07 1 0 "
       result="color2"
       id="feColorMatrix39" /></filter></defs>
<path
   d="M8.502,73.405V5c0-2.762,2.238-5,5-5h68.405L8.502,73.405z M121.681,116.521c-4.976,0-9.458-2.115-12.627-5.479  l-11.53,11.53l63.168,63.168c12.037-5.974,20.334-18.391,20.334-32.715c0-20.128-16.376-36.504-36.504-36.504H121.681z M104.311,5  c0-2.762-2.238-5-5-5h-3.264L8.502,87.546v47.693l95.809-95.809V5z M22.887,183.067l64.026-64.026  c0.002-0.002,0.003-0.004,0.004-0.005s0.004-0.003,0.005-0.004l17.562-17.562c-0.102-0.761-0.173-1.531-0.173-2.32V53.57  L8.502,149.379v5.725C8.502,166.613,14.186,176.813,22.887,183.067z M90.453,129.642l-26.039,26.039l33.848,33.848h46.26  c1.839,0,3.646-0.14,5.414-0.404L90.453,129.642z M57.344,162.751L32.265,187.83c3.36,1.097,6.941,1.698,10.662,1.698h41.194  L57.344,162.751z"
   id="path2"
   style="filter:url(#filter41)" />
<g
   id="g4">
</g>
<g
   id="g6">
</g>
<g
   id="g8">
</g>
<g
   id="g10">
</g>
<g
   id="g12">
</g>
<g
   id="g14">
</g>
<g
   id="g16">
</g>
<g
   id="g18">
</g>
<g
   id="g20">
</g>
<g
   id="g22">
</g>
<g
   id="g24">
</g>
<g
   id="g26">
</g>
<g
   id="g28">
</g>
<g
   id="g30">
</g>
<g
   id="g32">
</g>
</svg>
